<svg width="64" height="64" viewBox="0 0 64 64" fill="none" xmlns="http://www.w3.org/2000/svg">
<circle cx="32" cy="32" r="32" fill="#BBF294"/>
<path fill-rule="evenodd" clip-rule="evenodd" d="M32 21.3333C29.0533 21.3333 26.6667 23.72 26.6667 26.6667C26.6667 29.6133 29.0533 32 32 32C34.9467 32 37.3333 29.6133 37.3333 26.6667C37.3333 23.72 34.9467 21.3333 32 21.3333ZM34.6667 26.6667C34.6667 25.2 33.4667 24 32 24C30.5333 24 29.3333 25.2 29.3333 26.6667C29.3333 28.1333 30.5333 29.3333 32 29.3333C33.4667 29.3333 34.6667 28.1333 34.6667 26.6667ZM40 38.6667C39.7333 37.72 35.6 36 32 36C28.4 36 24.2667 37.72 24 38.68V40H40V38.6667ZM21.3333 38.6667C21.3333 35.12 28.44 33.3333 32 33.3333C35.56 33.3333 42.6667 35.12 42.6667 38.6667V42.6667H21.3333V38.6667Z" fill="#0A2100"/>
</svg>
