<svg width="64" height="64" viewBox="0 0 64 64" fill="none" xmlns="http://www.w3.org/2000/svg">
<circle cx="32" cy="32" r="32" fill="#BBF294"/>
<path fill-rule="evenodd" clip-rule="evenodd" d="M31.9867 18.6667C24.6267 18.6667 18.6667 24.64 18.6667 32C18.6667 39.36 24.6267 45.3334 31.9867 45.3334C39.36 45.3334 45.3334 39.36 45.3334 32C45.3334 24.64 39.36 18.6667 31.9867 18.6667ZM32 42.6667C26.1067 42.6667 21.3334 37.8934 21.3334 32C21.3334 26.1067 26.1067 21.3334 32 21.3334C37.8934 21.3334 42.6667 26.1067 42.6667 32C42.6667 37.8934 37.8934 42.6667 32 42.6667ZM30.6667 33.4267L37.9867 37.8134L39.3467 35.52L33.3334 31.9067V24.56H30.6667V33.4267Z" fill="#0A2100"/>
</svg>
