<svg width="64" height="64" viewBox="0 0 64 64" fill="none" xmlns="http://www.w3.org/2000/svg">
<circle cx="32" cy="32" r="32" fill="#BBF294"/>
<path fill-rule="evenodd" clip-rule="evenodd" d="M41.3333 21.3334H40V18.6667H37.3333V21.3334H26.6667V18.6667H24V21.3334H22.6667C21.1867 21.3334 20 22.5334 20 24V42.6667C20 44.1334 21.1867 45.3334 22.6667 45.3334H41.3333C42.8 45.3334 44 44.1334 44 42.6667V24C44 22.5334 42.8 21.3334 41.3333 21.3334ZM41.3333 42.6667H22.6667V28H41.3333V42.6667ZM24.6667 33.3334C24.6667 31.4934 26.16 30 28 30C29.84 30 31.3333 31.4934 31.3333 33.3334C31.3333 35.1734 29.84 36.6667 28 36.6667C26.16 36.6667 24.6667 35.1734 24.6667 33.3334Z" fill="#0A2100"/>
</svg>
