<?xml version="1.0" encoding="UTF-8" standalone="no"?>
<!-- Created with Inkscape (http://www.inkscape.org/) -->

<svg
   width="150.55081mm"
   height="27.796282mm"
   viewBox="0 0 150.55081 27.796282"
   version="1.1"
   id="svg5"
   xmlns="http://www.w3.org/2000/svg"
   xmlns:svg="http://www.w3.org/2000/svg">
  <defs
     id="defs2" />
  <g
     id="layer1"
     transform="translate(-96.546074,-65.434744)">
    <g
       id="g832"
       transform="matrix(0.35277777,0,0,-0.35277777,63.871479,219.03452)">
      <path
         d="m 127.3011,366.4774 c 1.082,0 2.16,0.2929 3.242,0.8519 l -10.6761,18.9921 c 2.586,0.6211 4.7812,1.8669 6.6132,3.668 2.719,2.719 4.0629,5.961 4.0629,9.7929 0,3.797 -1.3439,7.039 -4.0629,9.758 -2.7142,2.7189 -5.957,4.058 -9.7571,4.058 H 92.6209 v -47.0888 c 1.8011,0 3.3713,0.6559 4.6483,1.9329 1.313,1.277 1.9649,2.848 1.9649,4.6488 v 33.8942 h 17.489 c 2.0001,0 3.668,-0.7192 5.0779,-2.1291 1.406,-1.406 2.1252,-3.0779 2.1252,-5.074 0,-1.9999 -0.7192,-3.7338 -2.1252,-5.1409 -1.4099,-1.41 -3.0778,-2.0971 -5.0779,-2.0971 h -6.2862 c -1.836,0 -3.4058,-0.6571 -4.6828,-1.9341 -1.2781,-1.2767 -1.9341,-2.848 -1.9341,-4.648 h 8.7112 l 9.0039,-16.0778 c 0.9531,-1.6061 1.9999,-2.59 3.1451,-2.9151 1.1477,-0.328 2.0307,-0.4919 2.6209,-0.4919"
         style="fill:#faa21a;fill-opacity:1;fill-rule:nonzero;stroke:none"
         id="path834" />
      <path
         d="m 159.3281,366.5095 c 0,1.7379 -0.5899,3.242 -1.7691,4.519 -1.3091,1.4099 -2.9149,2.0979 -4.813,2.0979 h -6.2889 c -2.5861,0 -4.7809,0.9139 -6.5821,2.715 -1.8008,1.804 -2.719,3.996 -2.719,6.5849 0,2.586 0.9182,4.7781 2.719,6.5832 1.8012,1.8317 3.996,2.7499 6.5821,2.7499 2.59,0 4.7809,-0.9182 6.582,-2.719 0.9491,-0.9491 1.637,-2.031 2.1288,-3.3092 h -9.7888 c -1.8051,0 -3.375,-0.652 -4.6531,-1.929 -1.277,-1.2778 -1.929,-2.8519 -1.929,-4.6528 h 23.2501 c 0.2259,1.0469 0.3279,2.1289 0.3279,3.2769 0,1.1449 -0.102,2.2272 -0.3279,3.3049 -0.688,3.113 -2.1291,5.7662 -4.324,7.9571 -3.1102,3.1139 -6.8752,4.6531 -11.266,4.6531 -4.3869,0 -8.1522,-1.5392 -11.266,-4.6531 -3.1091,-3.109 -4.648,-6.8439 -4.648,-11.262 0,-4.39 1.5389,-8.1558 4.648,-11.2649 3.1138,-3.113 6.8791,-4.6519 11.266,-4.6519 z"
         style="fill:#faa21a;fill-opacity:1;fill-rule:nonzero;stroke:none"
         id="path836" />
      <path
         d="m 199.1171,366.5095 v 15.9168 c 0,4.4181 -1.5392,8.153 -4.6522,11.262 -0.7189,0.7232 -1.406,1.3131 -2.0319,1.738 -2.8159,1.9301 -5.894,2.9151 -9.2338,2.9151 -2.5192,0 -4.9102,-0.559 -7.1722,-1.7042 -0.7501,-0.3588 -1.4369,-0.8198 -2.1289,-1.3079 v 11.4611 c 0,1.8008 -0.6519,3.3709 -1.9289,4.6479 -1.2782,1.2782 -2.8523,1.9341 -4.6843,1.9341 v -46.8629 c 2.5552,0 4.5201,1.1789 5.8632,3.5699 0.489,0.9491 0.75,1.965 0.75,3.047 v 9.2999 c 0,2.586 0.9179,4.7781 2.719,6.5832 1.8009,1.8317 3.996,2.7499 6.5821,2.7499 2.5897,0 4.7809,-0.9182 6.5817,-2.7499 1.6062,-1.6061 2.4923,-3.5711 2.719,-5.9301 0.0352,-0.2271 0.0352,-3.5351 0.0352,-9.953 0,-1.082 0.227,-2.0979 0.7189,-3.047 1.3441,-2.391 3.308,-3.5699 5.8631,-3.5699 z m -11.988,33.4369 c -0.1961,0.324 -0.426,0.652 -0.6531,0.949 z"
         style="fill:#faa21a;fill-opacity:1;fill-rule:nonzero;stroke:none"
         id="path838" />
      <path
         d="m 214.1419,397.3062 c -1.9996,-0.7713 -3.8222,-1.9757 -5.4618,-3.6179 -3.1141,-3.109 -4.6531,-6.8439 -4.6531,-11.262 0,-3.4719 1.016,-6.5849 3.0121,-9.3351 3.3089,-4.3869 7.598,-6.5817 12.9019,-6.5817 h 9.3359 c 0,0.9487 -0.199,1.8 -0.5578,2.6209 -1.344,2.6518 -3.3401,3.9608 -6.0591,3.9608 h -2.719 c -2.586,0 -4.7809,0.9182 -6.582,2.7182 -1.8,1.836 -2.7151,4.028 -2.7151,6.6169 0,2.586 0.9151,4.7781 2.7151,6.5832 0.7772,0.7906 1.6282,1.4108 2.552,1.8606 z"
         style="fill:#faa21a;fill-opacity:1;fill-rule:nonzero;stroke:none"
         id="path840" />
      <path
         d="m 351.7109,366.5095 c 1.836,0 3.4061,0.6559 4.6831,1.9329 1.2782,1.277 1.9341,2.848 1.9341,4.684 v 25.215 c -1.8011,0 -3.3749,-0.6571 -4.6839,-1.9341 -1.2771,-1.277 -1.9333,-2.8479 -1.9333,-4.6479 z m 0,35.4999 c 1.836,0 3.4061,0.652 4.6831,1.929 1.2782,1.2779 1.9341,2.852 1.9341,4.6528 v 2.2261 c -1.8011,0 -3.3749,-0.656 -4.6839,-1.933 -1.2771,-1.2778 -1.9333,-2.848 -1.9333,-4.6491 z"
         style="fill:#fcb415;fill-opacity:1;fill-rule:nonzero;stroke:none"
         id="path842" />
      <path
         d="m 395.07,366.5095 v 15.9168 c 0,4.3872 -1.5738,8.1221 -4.6829,11.2311 -3.1102,3.1088 -6.844,4.684 -11.2311,4.684 -3.8319,0 -7.172,-1.18 -10.0548,-3.5711 -0.3283,0.6211 -0.7223,1.1449 -1.2101,1.637 -1.2782,1.277 -2.852,1.9341 -4.6531,1.9341 v -31.8319 c 1.8011,0 3.3749,0.6559 4.6531,1.9329 1.277,1.277 1.929,2.848 1.929,4.6488 v 9.1052 c 0,2.52 0.8521,4.7149 2.5548,6.5509 1.7031,1.832 3.8631,2.8119 6.4531,2.9761 h 0.0981 c 2.6521,0 4.9099,-0.8822 6.777,-2.683 1.8669,-1.8012 2.7851,-3.996 2.7851,-6.6141 v -9.3351 c 0,-1.8008 0.6528,-3.3718 1.9298,-4.6488 1.277,-1.277 2.8511,-1.9329 4.652,-1.9329"
         style="fill:#fcb415;fill-opacity:1;fill-rule:nonzero;stroke:none"
         id="path844" />
      <path
         d="m 431.8121,366.5095 v 15.9168 c 0,4.3872 -1.5701,8.1221 -4.6832,11.2311 -3.1098,3.1088 -6.8439,4.684 -11.2308,4.684 -3.8322,0 -7.172,-1.18 -10.0539,-3.5711 -0.328,0.6211 -0.7192,1.1449 -1.211,1.637 -1.2781,1.277 -2.8522,1.9341 -4.6531,1.9341 v -31.8319 c 1.8009,0 3.375,0.6559 4.6531,1.9329 1.2767,1.277 1.929,2.848 1.929,4.6488 v 9.1052 c 0,2.52 0.8518,4.7149 2.5548,6.5509 1.7031,1.832 3.8671,2.8119 6.4531,2.9761 h 0.0981 c 2.6518,0 4.9099,-0.8822 6.7768,-2.683 1.8672,-1.8012 2.785,-3.996 2.785,-6.6141 v -9.3351 c 0,-1.8008 0.6571,-3.3718 1.9341,-4.6488 1.273,-1.277 2.848,-1.9329 4.648,-1.9329"
         style="fill:#fcb415;fill-opacity:1;fill-rule:nonzero;stroke:none"
         id="path846" />
      <path
         d="m 465.5081,366.5095 c 0,1.7379 -0.586,3.242 -1.766,4.519 -1.3122,1.4099 -2.914,2.0979 -4.8161,2.0979 h -6.285 c -2.586,0 -4.782,0.9139 -6.582,2.715 -1.8009,1.804 -2.719,3.996 -2.719,6.5849 0,2.586 0.9181,4.7781 2.719,6.5832 1.8,1.8317 3.996,2.7499 6.582,2.7499 2.585,0 4.781,-0.9182 6.5821,-2.719 0.949,-0.9491 1.6359,-2.031 2.128,-3.3092 h -9.792 c -1.8012,0 -3.3721,-0.652 -4.6491,-1.929 -1.2771,-1.2778 -1.9338,-2.8519 -1.9338,-4.6528 h 23.2497 c 0.231,1.0469 0.3291,2.1289 0.3291,3.2769 0,1.1449 -0.0981,2.2272 -0.3291,3.3049 -0.6868,3.113 -2.1279,5.7662 -4.32,7.9571 -3.1127,3.1139 -6.8788,4.6531 -11.2649,4.6531 -4.3908,0 -8.1569,-1.5392 -11.266,-4.6531 -3.109,-3.109 -4.6519,-6.8439 -4.6519,-11.262 0,-4.39 1.5429,-8.1558 4.6519,-11.2649 3.1091,-3.113 6.8752,-4.6519 11.266,-4.6519 z"
         style="fill:#fcb415;fill-opacity:1;fill-rule:nonzero;stroke:none"
         id="path848" />
      <path
         d="m 497.535,398.3414 h -8.1519 c -3.8321,0 -7.1722,-1.18 -10.055,-3.5711 -0.328,0.6211 -0.7192,1.1449 -1.211,1.637 -1.277,1.277 -2.8479,1.9341 -4.6479,1.9341 v -31.8319 c 2.554,0 4.519,1.1789 5.8589,3.5699 0.4921,0.9179 0.7228,1.933 0.7228,3.0118 v 9.3351 c 0,2.586 0.9142,4.7781 2.7502,6.5832 1.8,1.8 3.996,2.7139 6.582,2.7139 h 1.539 c 1.832,0 3.4061,0.657 4.6831,1.934 0.7189,0.7541 1.243,1.605 1.6058,2.621 0.2259,0.6519 0.324,1.3399 0.324,2.063"
         style="fill:#fcb415;fill-opacity:1;fill-rule:nonzero;stroke:none"
         id="path850" />
      <path
         d="m 509.7501,366.5095 c 2.6521,0 4.945,0.9487 6.8119,2.8159 1.868,1.8669 2.8171,4.125 2.8171,6.7811 0,2.4219 -0.7849,4.5158 -2.391,6.3198 -1.8669,2.192 -4.2891,3.3049 -7.238,3.3049 -1.6679,0 -3.0121,1.3442 -3.0121,3.0161 0,1.6682 1.3442,2.9761 3.0121,2.9761 h 3.016 c 1.9959,0 3.6669,0.7889 5.0069,2.3289 1.082,1.2101 1.6061,2.6521 1.6061,4.2891 h -9.629 c -2.6521,0 -4.9451,-0.9502 -6.8091,-2.8171 -1.8669,-1.8669 -2.7851,-4.1249 -2.7851,-6.777 0,-2.4259 0.7852,-4.5199 2.3602,-6.321 1.144,-1.3119 2.554,-2.2609 4.2219,-2.8159 0.949,-0.328 1.965,-0.4921 3.0121,-0.4921 1.6719,0 3.016,-1.3439 3.016,-3.0118 0,-1.6722 -1.3441,-3.0153 -3.016,-3.0153 h -3.0121 c -1.8009,0 -3.371,-0.6528 -4.648,-1.9298 -1.2778,-1.277 -1.9341,-2.8519 -1.9341,-4.6519 z"
         style="fill:#fcb415;fill-opacity:1;fill-rule:nonzero;stroke:none"
         id="path852" />
      <path
         d="m 259.922,404.6559 c 0,-3.9529 -3.2029,-7.1558 -7.153,-7.1558 -3.9529,0 -7.156,3.2029 -7.156,7.1558 0,3.9532 3.2031,7.156 7.156,7.156 3.9501,0 7.153,-3.2028 7.153,-7.156 z"
         style="fill:#007d40;fill-opacity:1;fill-rule:nonzero;stroke:#ffffff;stroke-width:0.8504;stroke-linecap:butt;stroke-linejoin:miter;stroke-miterlimit:4;stroke-dasharray:none;stroke-opacity:1"
         id="path854" />
      <path
         d="m 225.805,381.8429 c 25.4611,8.75 25.2221,2.329 22.472,-20.5659 -2.179,20.84 -0.898,22.8949 -22.472,20.5659"
         style="fill:#6ebb44;fill-opacity:1;fill-rule:evenodd;stroke:none"
         id="path856" />
      <path
         d="m 244.398,406.3431 c -2.304,-0.961 -34.2609,-14.6991 -14.25,-15.3511 4.68,-0.153 7.1371,0.6049 11.4769,1.9409 -4.5238,-2.3978 -16.2847,-7.4018 -20.992,-2.6719 -9.2817,9.3279 20.9413,15.493 23.7651,16.0821"
         style="fill:#6ebb44;fill-opacity:1;fill-rule:evenodd;stroke:none"
         id="path858" />
      <path
         d="m 276.3729,422.7503 h 7.0061 c 0.9569,0 1.762,-0.277 2.41,-0.828 0.684,-0.5159 1.1131,-1.1679 1.2849,-1.9568 l 6.4653,-29.992 c 0.3747,-1.7781 0.7149,-3.535 1.0227,-5.2741 0.3441,-1.6991 0.6333,-3.3789 0.8751,-5.0389 0.375,1.66 0.7701,3.3398 1.18,5.0389 0.442,1.7391 0.906,3.496 1.3831,5.2741 l 7.6989,30.1088 c 0.2029,0.7931 0.625,1.4811 1.231,1.957 0.6211,0.4921 1.3672,0.7702 2.257,0.7702 h 5.7461 c 0.3793,0 0.7367,-0.0434 1.0704,-0.1298 l 0.2814,-11.9563 c 0.1786,-7.6512 -0.0201,-14.2585 -0.6624,-20.3641 l -2.2785,8.86 c -0.688,2.41 -1.1999,4.7622 -1.5389,7.0552 -7.0234,-18.9854 -8.1536,-39.6148 -21.0921,-42.1453 l -0.003,0.0431 -0.0309,0.3682 -0.011,0.1296 -0.025,0.2888 -0.0192,0.2191 -0.005,0.0607 -0.0417,0.457 -0.011,0.1207 -0.038,0.4065 -0.003,0.0317 -0.0429,0.4445 -0.006,0.0598 -0.0159,0.1593 c -0.0482,0.4893 -0.0992,0.9885 -0.1525,1.4959 l -0.0122,0.1168 -0.0482,0.449 -0.002,0.021 -0.0516,0.4742 -0.008,0.0768 -0.0445,0.4014 -0.0199,0.1763 c -0.0652,0.5803 -0.1332,1.1682 -0.2038,1.7615 l -0.2185,1.7934 -0.025,0.1996 -0.051,0.4031 -0.0122,0.0972 -0.0644,0.5009 -5e-4,0.006 -0.0644,0.496 -0.0144,0.1089 -0.0516,0.3931 -0.0281,0.2124 -0.009,0.07 -0.0664,0.4952 -0.005,0.04 -0.0253,0.1865 -0.057,0.4181 -0.0113,0.0833 -0.0689,0.5003 -0.003,0.0196 -0.0669,0.4799 -0.017,0.1219 -0.0533,0.3759 -0.0318,0.2236 -0.0391,0.2727 -0.0467,0.3243 -0.0247,0.1698 -0.0618,0.4238 -0.01,0.068 -0.0726,0.489 -0.005,0.0326 -0.008,0.0513 -0.0802,0.5343 -0.0533,0.3509 -0.0351,0.2296 -0.0383,0.2501 -0.0504,0.3254 -0.0236,0.1502 -0.0657,0.4193 -0.008,0.0521 -0.0742,0.4669 -0.007,0.0442 -0.0675,0.4181 -0.0224,0.1381 -0.0119,0.0725 -0.0782,0.476 -0.0369,0.2228 -0.0533,0.318 -0.0215,0.1284 -0.0689,0.404 -0.0808,0.4705 -0.009,0.0527 -0.0879,0.5006 -0.002,0.0134 -0.0501,0.282 -0.0397,0.2217 -0.0349,0.1919 -0.055,0.3013 -0.0193,0.1052 -0.0703,0.3767 -0.004,0.0218 -0.074,0.3906 -0.0111,0.0581 -0.0626,0.3243 -0.0261,0.1341 -0.0473,0.2395 -0.005,0.0264 -0.0584,0.2931 -0.009,0.0454 -0.0555,0.2735 -0.017,0.0822 -0.0701,0.3365 -0.002,0.01 -0.0718,0.3362 -0.0127,0.0587 -0.0584,0.2676 -0.0269,0.1221 -0.0165,0.0723 -0.0592,0.2619 -0.0173,0.0757 -0.0567,0.2435 -0.0187,0.0797 -0.0142,0.0595 -0.0686,0.2829 c -2.391,9.703 -6.266,19.2501 -10.438,25.7071 l -0.0553,0.0859 -0.0365,0.0564 -0.0188,0.0289 -0.0552,0.0854 -0.0176,0.0275 -0.0371,0.0572 -0.0542,0.0834 -8e-4,10e-4 -0.0547,0.0842 -0.0352,0.0544 -0.0193,0.0295 -0.0544,0.0836 -0.0167,0.0258 -0.0374,0.0573 -0.0525,0.0805 -10e-4,0.002 -0.0538,0.0825 -0.0341,0.0519 -0.0195,0.03 -0.0536,0.0814 -0.0156,0.0241 -0.0374,0.0573 -0.0255,0.0388 c 0.5743,0.9697 0.9312,2.0837 1.0035,3.2746 z m 51.8122,-42.012 c 0.0822,-0.381 0.1624,-0.7597 0.2409,-1.1359 0.0978,0.6083 0.1982,1.2169 0.3008,1.8253 3.3987,4.365 6.4987,9.1323 9.0351,13.9677 2.9481,5.6194 7.4971,18.2557 10.0545,27.3549 h 2.7777 c 0,0 -3.9379,-38.1209 -17.0671,-52.1249 -2.4058,-2.5699 -9.3079,-6.73 -9.3079,-6.73 -1.1211,-0.4179 -2.016,0.8671 -2.461,2.605 l -1.4341,5.5769 c 2.7037,2.5767 5.3578,5.5071 7.8611,8.661"
         style="fill:#fcb415;fill-opacity:1;fill-rule:nonzero;stroke:none"
         id="path860" />
      <path
         d="m 341.0861,424.5324 c 0,-5.6132 -4.547,-10.1599 -10.1599,-10.1599 -5.614,0 -10.1602,4.5467 -10.1602,10.1599 0,5.6089 4.5462,10.1599 10.1602,10.1599 5.6129,0 10.1599,-4.551 10.1599,-10.1599 z"
         style="fill:#007d40;fill-opacity:1;fill-rule:nonzero;stroke:#ffffff;stroke-width:1.4173;stroke-linecap:butt;stroke-linejoin:miter;stroke-miterlimit:4;stroke-dasharray:none;stroke-opacity:1"
         id="path862" />
      <path
         d="m 311.332,369.7495 c 3.926,12.4378 5.3441,24.1877 4.9529,40.9459 l -0.375,15.9219 3.3591,-8.0901 c 3.7309,-8.981 8.2,-16.5818 9.7472,-16.5818 2.0069,0 12.8038,15.0001 16.9679,23.574 3.7349,7.687 4.172,8.2299 3.539,4.3869 -1.2571,-7.6799 -7.8899,-27.1598 -11.7612,-34.539 -5.2699,-10.0468 -12.9727,-19.8008 -20.7348,-26.2619 -3.6562,-3.0429 -6.8749,-5.5312 -7.1482,-5.5312 -0.2738,0 0.379,2.7771 1.4531,6.1753 z"
         style="fill:#6ebb44;fill-opacity:1;fill-rule:nonzero;stroke:#ffffff;stroke-width:1.4173;stroke-linecap:butt;stroke-linejoin:miter;stroke-miterlimit:4;stroke-dasharray:none;stroke-opacity:1"
         id="path864" />
      <path
         d="m 272.7933,416.8984 c 1.2719,-11.4973 1.1704,-22.411 -0.3283,-37.6721 l -1.4689,-14.9298 2.6561,7.4219 c 2.9457,8.246 6.2308,15.156 7.16,15.0781 1.2109,-0.1012 6.5389,-14.7342 8.3789,-22.9961 1.6489,-7.4061 1.868,-7.937 1.789,-4.297 -0.1559,7.274 -2.632,25.903 -4.3861,33.0278 -2.391,9.703 -6.266,19.2501 -10.438,25.7072 -0.2707,0.4195 -0.5366,0.8288 -0.7954,1.2225 -0.6276,-1.0539 -1.512,-1.9372 -2.5673,-2.5625 z"
         style="fill:#6ebb44;fill-opacity:1;fill-rule:nonzero;stroke:#ffffff;stroke-width:1.4173;stroke-linecap:butt;stroke-linejoin:miter;stroke-miterlimit:4;stroke-dasharray:none;stroke-opacity:1"
         id="path866" />
      <path
         d="m 276.387,423.2004 c 0,-4.043 -3.278,-7.321 -7.321,-7.321 -4.0431,0 -7.316,3.278 -7.316,7.321 0,4.0431 3.2729,7.3159 7.316,7.3159 4.043,0 7.321,-3.2728 7.321,-7.3159 z"
         style="fill:#007d40;fill-opacity:1;fill-rule:nonzero;stroke:#ffffff;stroke-width:0.8504;stroke-linecap:butt;stroke-linejoin:miter;stroke-miterlimit:4;stroke-dasharray:none;stroke-opacity:1"
         id="path868" />
    </g>
  </g>
</svg>
