<svg width="48" height="48" viewBox="0 0 48 48" fill="none" xmlns="http://www.w3.org/2000/svg">
    <g clip-path="url(#clip0_30_4176)">
        <path fill-rule="evenodd" clip-rule="evenodd"
            d="M24 20C25.1 20 26 19.1 26 18C26 16.9 25.1 16 24 16C22.9 16 22 16.9 22 18C22 19.1 22.9 20 24 20ZM24 22C22.9 22 22 22.9 22 24C22 25.1 22.9 26 24 26C25.1 26 26 25.1 26 24C26 22.9 25.1 22 24 22ZM22 30C22 28.9 22.9 28 24 28C25.1 28 26 28.9 26 30C26 31.1 25.1 32 24 32C22.9 32 22 31.1 22 30Z"
            fill="#767680" />
    </g>
    <defs>
        <clipPath id="clip0_30_4176">
            <rect x="4" y="4" width="40" height="40" rx="20" fill="white" />
        </clipPath>
    </defs>
</svg>